<svg xmlns="http://www.w3.org/2000/svg" viewBox="0 0 100 100"><path clip-rule="evenodd" d="M50 91.47c-22.853 0-41.466-18.588-41.466-41.411 0-22.824 18.613-41.53 41.466-41.53s41.466 18.589 41.466 41.412c0 22.824-18.613 41.53-41.466 41.53z" fill="#f9e10a" fill-rule="evenodd"/><path d="M50 9.706c22.264 0 40.288 18.118 40.288 40.235 0 22.235-18.141 40.235-40.288 40.235-22.264 0-40.288-18.117-40.288-40.235C9.712 27.824 27.736 9.706 50 9.706m0-2.353c-23.56 0-42.644 19.176-42.644 42.706 0 23.53 19.084 42.588 42.644 42.588S92.644 73.588 92.644 50.06C92.644 26.529 73.56 7.353 50 7.353z" fill="#7f6b00"/><path d="M50 7.353c23.56 0 42.644 19.059 42.644 42.588C92.644 73.471 73.56 92.53 50 92.53S7.356 73.471 7.356 49.941C7.356 26.53 26.44 7.353 50 7.353M50 5C25.144 5 5 25.235 5 50.059 5 74.882 25.262 95 50 95c24.856 0 45-20.235 45-44.941C95 25.235 74.856 5 50 5z"/><path clip-rule="evenodd" d="M50 22.647c15.079 0 27.33 12.235 27.33 27.294C77.33 65 65.079 77.235 50 77.235c-15.079 0-27.33-12.117-27.33-27.176 0-15.177 12.251-27.412 27.33-27.412z" fill="#debf18" fill-rule="evenodd"/><path d="M47.592 73.334c-9.786-.912-18.229-7.39-21.16-16.238-.87-2.627-1.063-3.913-1.063-7.117 0-2.468.047-3.122.314-4.355 1.36-6.289 4.913-11.419 10.397-15.013 8.25-5.408 19.59-5.408 27.84 0 5.484 3.594 9.036 8.724 10.397 15.013.267 1.233.314 1.887.314 4.355 0 3.204-.192 4.49-1.062 7.117C70.1 67.564 59.147 74.411 47.592 73.334zm7.365-1.395c4.859-1.047 8.767-3.157 12.191-6.582 3.675-3.676 5.712-7.722 6.368-12.644 1.393-10.473-5.26-20.491-15.926-23.976-2.599-.85-4.144-1.067-7.59-1.067-3.446 0-4.991.218-7.59 1.067C31.75 32.22 25.09 42.247 26.484 52.713c.656 4.926 2.696 8.976 6.368 12.64 3.74 3.731 8.072 5.936 13.346 6.791 1.925.312 6.897.196 8.76-.205zm-9.141-5.399c-.199-.074-.47-.32-.602-.544-.387-.654-.309-1.304.25-2.086 1.272-1.782 1.817-2.657 2.124-3.412.7-1.724 1.065-4.854.565-4.854-.12 0-.985-.286-1.922-.637-2.454-.918-2.469-.915-3.941.663-1.926 2.064-2.838 2.468-4.106 1.822-.478-.245-.555-.356-.641-.928-.116-.772.007-1.457.327-1.822.729-.83 4.814-3.725 6.069-4.3.8-.365.912-.37 2.803-.097.537.077.576.058.738-.373.164-.433.129-.527-.744-1.996-3.29-5.544-5.954-11.453-5.163-11.453.1 0 .251.087.338.193l2.094 2.585c2.246 2.774 3.85 4.58 4.888 5.502.86.765 2.255 1.635 2.621 1.635.355 0 .334-.341-.168-2.785-.623-3.025-.69-2.758 1.046-4.19l1.472-1.215.489.348c.269.192.64.616.824.944.304.539.333.748.311 2.224-.013.896-.089 2.477-.168 3.514-.126 1.647-.116 1.93.08 2.23.594.906 2.323.708 5.86-.672a1170 1170 0 0 1 3.455-1.343c2.24-.864 3.344-1.046 3.344-.552 0 .543-2.391 2.246-8.71 6.201-3.268 2.045-3.825 2.34-5.417 2.865-.642.212-1.197.433-1.234.493-.036.059-.192 1.063-.346 2.23-.153 1.169-.417 2.533-.585 3.033-1.39 4.136-4.266 7.411-5.951 6.778z" fill="#f9e10a"/></svg>