<svg xmlns="http://www.w3.org/2000/svg" viewBox="0 0 100 100"><path clip-rule="evenodd" d="M51.937 91.47c-22.853 0-41.466-18.588-41.466-41.411 0-22.824 18.613-41.53 41.466-41.53s41.466 18.589 41.466 41.412c0 22.824-18.613 41.53-41.466 41.53z" fill="#f72640" fill-rule="evenodd"/><path d="M51.937 9.706c22.264 0 40.288 18.118 40.288 40.235 0 22.235-18.141 40.235-40.288 40.235-22.264 0-40.288-18.117-40.288-40.235 0-22.117 18.024-40.235 40.288-40.235m0-2.353c-23.56 0-42.644 19.176-42.644 42.706 0 23.53 19.084 42.588 42.644 42.588S94.581 73.588 94.581 50.06c0-23.53-19.084-42.706-42.644-42.706z" fill="#8b122a"/><path d="M51.937 7.353c23.56 0 42.644 19.059 42.644 42.588 0 23.53-19.084 42.588-42.644 42.588S9.293 73.471 9.293 49.941c0-23.412 19.084-42.588 42.644-42.588m0-2.353c-24.856 0-45 20.235-45 45.059C6.937 74.882 27.2 95 51.937 95c24.856 0 45-20.235 45-44.941C96.937 25.235 76.793 5 51.937 5z"/><path clip-rule="evenodd" d="M51.937 22.647c15.079 0 27.33 12.235 27.33 27.294 0 15.059-12.251 27.294-27.33 27.294-15.078 0-27.33-12.117-27.33-27.176 0-15.177 12.252-27.412 27.33-27.412z" fill="#d70f37" fill-rule="evenodd"/><path d="M49.53 73.334c-9.787-.912-18.23-7.39-21.162-16.238-.87-2.627-1.062-3.913-1.062-7.117 0-2.468.047-3.122.314-4.355 1.36-6.289 4.913-11.419 10.397-15.013 8.25-5.408 19.59-5.408 27.84 0 5.484 3.594 9.036 8.724 10.397 15.013.267 1.233.314 1.887.314 4.355 0 3.204-.192 4.49-1.062 7.117-3.469 10.468-14.422 17.315-25.977 16.238zm7.364-1.395c4.859-1.047 8.767-3.157 12.191-6.582 3.675-3.676 5.712-7.722 6.368-12.644 1.394-10.473-5.26-20.491-15.926-23.976-2.599-.85-4.144-1.067-7.59-1.067-3.446 0-4.991.218-7.59 1.067-10.658 3.483-17.319 13.51-15.926 23.976.656 4.926 2.696 8.976 6.368 12.64 3.74 3.731 8.072 5.936 13.346 6.791 1.925.312 6.897.196 8.76-.205zm-9.141-5.399c-.198-.074-.47-.32-.602-.544-.387-.654-.309-1.304.25-2.086 1.272-1.782 1.817-2.657 2.124-3.412.7-1.724 1.065-4.854.565-4.854-.12 0-.985-.286-1.922-.637-2.454-.918-2.469-.915-3.941.663-1.926 2.064-2.838 2.468-4.106 1.822-.478-.245-.555-.356-.641-.928-.116-.772.007-1.457.327-1.822.729-.83 4.814-3.725 6.069-4.3.8-.365.912-.37 2.803-.097.537.077.576.058.738-.373.164-.433.13-.527-.743-1.996-3.29-5.544-5.955-11.453-5.164-11.453.1 0 .251.087.338.193l2.094 2.585c2.246 2.774 3.85 4.58 4.888 5.502.86.765 2.255 1.635 2.621 1.635.355 0 .334-.341-.168-2.785-.622-3.025-.689-2.758 1.046-4.19l1.472-1.215.489.348c.269.192.64.616.824.944.304.539.333.748.311 2.224-.013.896-.089 2.477-.168 3.514-.126 1.647-.116 1.93.08 2.23.595.906 2.323.708 5.86-.672a1170 1170 0 0 1 3.455-1.343c2.24-.864 3.344-1.046 3.344-.552 0 .543-2.391 2.246-8.71 6.201-3.268 2.045-3.825 2.34-5.417 2.865-.642.212-1.197.433-1.234.493-.036.059-.192 1.063-.346 2.23-.153 1.169-.417 2.533-.585 3.033-1.39 4.136-4.266 7.411-5.951 6.778z" fill="#f72640"/></svg>