<?xml version="1.0" encoding="UTF-8" standalone="no"?>
<!-- Generator: Adobe Illustrator 18.1.1, SVG Export Plug-In . SVG Version: 6.00 Build 0)  -->

<svg
   xmlns:dc="http://purl.org/dc/elements/1.1/"
   xmlns:cc="http://creativecommons.org/ns#"
   xmlns:rdf="http://www.w3.org/1999/02/22-rdf-syntax-ns#"
   xmlns:svg="http://www.w3.org/2000/svg"
   xmlns="http://www.w3.org/2000/svg"
   xmlns:sodipodi="http://sodipodi.sourceforge.net/DTD/sodipodi-0.dtd"
   xmlns:inkscape="http://www.inkscape.org/namespaces/inkscape"
   version="1.1"
   id="Layer_1"
   x="0px"
   y="0px"
   viewBox="0 0 100 100"
   enable-background="new 0 0 76.6 76.5"
   xml:space="preserve"
   inkscape:version="0.48.4 r9939"
   width="100%"
   height="100%"
   sodipodi:docname="block-1.svg"><metadata
     id="metadata3003"><rdf:RDF><cc:Work
         rdf:about=""><dc:format>image/svg+xml</dc:format><dc:type
           rdf:resource="http://purl.org/dc/dcmitype/StillImage" /></cc:Work></rdf:RDF></metadata><defs
     id="defs3001" /><sodipodi:namedview
     pagecolor="#ffffff"
     bordercolor="#666666"
     borderopacity="1"
     objecttolerance="10"
     gridtolerance="10"
     guidetolerance="10"
     inkscape:pageopacity="0"
     inkscape:pageshadow="2"
     inkscape:window-width="789"
     inkscape:window-height="820"
     id="namedview2999"
     showgrid="false"
     inkscape:zoom="3.0849673"
     inkscape:cx="38.948305"
     inkscape:cy="38.25"
     inkscape:window-x="0"
     inkscape:window-y="0"
     inkscape:window-maximized="0"
     inkscape:current-layer="Layer_1" /><g
     id="g2987"
     transform="matrix(1.1780105,0,0,1.1764706,4.882199,5.0000004)"><g
       id="g2989"><path
         clip-rule="evenodd"
         d="M 38.3,73.5 C 18.9,73.5 3.1,57.7 3.1,38.3 3.1,18.9 18.9,3 38.3,3 57.7,3 73.5,18.8 73.5,38.2 73.5,57.6 57.7,73.5 38.3,73.5 z"
         id="path2991"
         inkscape:connector-curvature="0"
         style="fill:#f72640;fill-rule:evenodd" /><path
         d="M 38.3,4 C 57.2,4 72.5,19.4 72.5,38.2 72.5,57.1 57.1,72.4 38.3,72.4 19.4,72.4 4.1,57 4.1,38.2 4.1,19.4 19.4,4 38.3,4 m 0,-2 C 18.3,2 2.1,18.3 2.1,38.3 c 0,20 16.2,36.2 36.2,36.2 20,0 36.2,-16.2 36.2,-36.2 C 74.5,18.3 58.3,2 38.3,2 l 0,0 z"
         id="path2993"
         inkscape:connector-curvature="0"
         style="fill:#8b122a" /><path
         d="m 38.3,2 c 20,0 36.2,16.2 36.2,36.2 0,20 -16.2,36.2 -36.2,36.2 C 18.3,74.4 2.1,58.2 2.1,38.2 2.1,18.3 18.3,2 38.3,2 m 0,-2 C 17.2,0 0.1,17.2 0.1,38.3 0.1,59.4 17.3,76.5 38.3,76.5 59.4,76.5 76.5,59.3 76.5,38.3 76.5,17.2 59.4,0 38.3,0 l 0,0 z"
         id="path2995"
         inkscape:connector-curvature="0" /></g><path
       clip-rule="evenodd"
       d="M 38.3,15 C 51.1,15 61.5,25.4 61.5,38.2 61.5,51 51.1,61.4 38.3,61.4 25.5,61.4 15.1,51.1 15.1,38.3 15.1,25.4 25.5,15 38.3,15 z"
       id="path2997"
       inkscape:connector-curvature="0"
       style="fill:#d70f37;fill-rule:evenodd" /></g></svg>